Coordinates
version=1
nRows=13
nColumns=40
inDegrees=yes

Units are S.I. units (second, meters, Newtons, ...)
Angles are in degrees.

endheader
time	pelvis_tilt	pelvis_list	pelvis_rotation	pelvis_tx	pelvis_ty	pelvis_tz	hip_flexion_r	hip_adduction_r	hip_rotation_r	knee_angle_r	knee_angle_r_beta	ankle_angle_r	subtalar_angle_r	mtp_angle_r	hip_flexion_l	hip_adduction_l	hip_rotation_l	knee_angle_l	knee_angle_l_beta	ankle_angle_l	subtalar_angle_l	mtp_angle_l	lumbar_extension	lumbar_bending	lumbar_rotation	arm_flex_r	arm_add_r	arm_rot_r	elbow_flex_r	pro_sup_r	wrist_flex_r	wrist_dev_r	arm_flex_l	arm_add_l	arm_rot_l	elbow_flex_l	pro_sup_l	wrist_flex_l	wrist_dev_l
     25.01228571	     -5.04799368	     -4.71184198	     -1.84742571	      0.91110739	      0.93601736	      0.45159426	     34.06858946	     -3.89984491	     -8.16974477	     56.29429170	     56.29429170	      1.36724669	    -15.89479752	      2.23950455	      8.39509756	     -3.55057487	     -8.25660904	     15.37776445	     15.37776445	     13.98332475	     -9.81108979	      0.96696603	     -9.17995404	      6.68548573	      3.67914405	     -3.40266276	    -10.64314121	     -8.01942444	     21.61556066	     46.56637622	      0.00000000	      0.00000000	     19.34754407	    -13.77399280	     -7.48331402	     69.64292965	     47.20882101	      0.00000000	      0.00000000
     25.02457143	     -5.17992241	     -4.82566867	     -1.98119768	      0.90973602	      0.93587728	      0.45205083	     34.48878795	     -3.45413928	     -8.45251684	     52.93225319	     52.93225319	      1.47896300	    -14.87853172	      2.33975587	      7.82103199	     -3.67447460	     -8.43277285	     14.87326410	     14.87326410	     14.18077003	     -9.52883541	      0.87380111	     -9.22399109	      6.80446880	      3.60826922	     -4.73015130	    -10.50508448	     -7.91658457	     21.23691027	     46.56216594	      0.00000000	      0.00000000	     20.49081283	    -14.04290822	     -7.88751843	     70.69642414	     47.26276175	      0.00000000	      0.00000000
     25.03685714	     -5.09550822	     -4.89645626	     -2.13747527	      0.90869156	      0.93584063	      0.45252976	     34.34967136	     -3.02757617	     -8.73730752	     48.95663367	     48.95663367	      0.78183465	    -14.01374511	     -0.23800817	      6.95445235	     -3.79973802	     -9.03396847	     14.31402301	     14.31402301	     14.23540909	     -8.72745069	      0.02678400	     -9.59817452	      6.84109038	      3.43052374	     -6.41071377	    -10.64238641	     -6.86179033	     22.43370547	     46.41856438	      0.00000000	      0.00000000	     20.82498402	    -13.77862850	     -9.60473966	     73.66061088	     47.46345673	      0.00000000	      0.00000000
     25.04914286	     -5.22309213	     -4.93027233	     -2.22369895	      0.90753318	      0.93532427	      0.45305503	     34.39437303	     -2.63893998	     -9.02374471	     44.92710850	     44.92710850	      0.93444583	    -12.56734203	     -0.13996828	      6.43560499	     -3.83687177	     -9.14973165	     13.93746732	     13.93746732	     14.46196244	     -8.52188170	     -0.09427246	     -9.60884928	      6.88871240	      3.31358292	     -7.60357199	    -10.59043400	     -6.71318203	     22.12520347	     46.41069684	      0.00000000	      0.00000000	     21.81841193	    -13.98129644	     -9.84510737	     74.44830328	     47.50145567	      0.00000000	      0.00000000
     25.06142857	     -5.27861561	     -4.90397441	     -2.35213685	      0.90658156	      0.93471037	      0.45368539	     34.11646806	     -2.31339938	     -9.38905788	     40.51770149	     40.51770149	      0.62079853	    -10.90384478	     -1.50962778	      5.78154478	     -3.84373627	     -9.59377394	     13.49637983	     13.49637983	     14.69023346	     -7.87365448	     -0.57820325	     -9.71513636	      6.83989190	      3.30530055	     -9.13458685	    -10.59119180	     -6.20908316	     22.84716994	     46.33447209	      0.00000000	      0.00000000	     22.59746564	    -13.94001420	    -10.53605616	     75.97577132	     47.59818861	      0.00000000	      0.00000000
     25.07371429	     -5.36698685	     -4.93549490	     -2.40455064	      0.90572261	      0.93392986	      0.45436790	     33.69723536	     -1.87871329	     -9.76547284	     35.95061572	     35.95061572	      0.69387191	     -9.15100292	     -1.17673462	      5.27432905	     -3.89109464	     -9.67092011	     13.25764738	     13.25764738	     14.97647997	     -7.73929072	     -0.76674670	     -9.72072165	      6.89297601	      3.10916308	    -10.16640773	    -10.56871149	     -6.13856852	     22.72329342	     46.32697424	      0.00000000	      0.00000000	     23.40384997	    -14.17859977	    -10.73571996	     76.61351358	     47.62944234	      0.00000000	      0.00000000
     25.08600000	     -5.45402948	     -4.88805883	     -2.46461352	      0.90508945	      0.93296247	      0.45515345	     33.11074135	     -1.51110909	    -10.20934169	     31.32420813	     31.32420813	      0.76932139	     -7.16636077	     -0.73468190	      4.72432617	     -3.85615947	     -9.84637733	     12.96638100	     12.96638100	     15.25855869	     -7.50257244	     -0.99948739	     -9.70890792	      6.83569146	      2.99721765	    -11.18618675	    -10.50865143	     -6.11493327	     22.70914047	     46.31815698	      0.00000000	      0.00000000	     24.14455454	    -14.32529661	    -10.94589357	     77.32722002	     47.66224910	      0.00000000	      0.00000000
     25.09828571	     -5.48215694	     -4.80372128	     -2.50947163	      0.90478090	      0.93186831	      0.45597753	     32.33612462	     -1.17808407	    -10.70882026	     26.80583220	     26.80583220	      0.83706995	     -5.05680154	     -0.08031091	      4.08472747	     -3.78191529	    -10.00909758	     12.67701067	     12.67701067	     15.58774158	     -7.22833196	     -1.28850482	     -9.68538339	      6.75972770	      2.91890790	    -12.12817999	    -10.44631114	     -6.13336266	     22.80882756	     46.30850476	      0.00000000	      0.00000000	     24.79249571	    -14.43163990	    -11.13375089	     78.00926727	     47.69275387	      0.00000000	      0.00000000
     25.11057143	     -5.46263660	     -4.69629330	     -2.52324975	      0.90473627	      0.93066653	      0.45687849	     31.44482109	     -0.87183239	    -11.30841815	     22.59560593	     22.59560593	      0.92959313	     -2.94710547	      0.86936151	      3.37805748	     -3.68001432	    -10.15491695	     12.37898857	     12.37898857	     15.93074940	     -6.94832516	     -1.60728128	     -9.71349261	      6.65666487	      2.83350051	    -13.01774558	    -10.40436918	     -6.19152286	     22.99042347	     46.29925431	      0.00000000	      0.00000000	     25.33710048	    -14.50128398	    -11.27204599	     78.61248517	     47.71859011	      0.00000000	      0.00000000
     25.12285714	     -5.41857860	     -4.57487726	     -2.53346353	      0.90494478	      0.92931994	      0.45797953	     30.57529115	     -0.58581857	    -11.99541353	     18.97916272	     18.97916272	      1.09018731	     -0.96647482	      2.11199076	      2.62381107	     -3.57156483	    -10.26285790	     12.08017704	     12.08017704	     16.26490724	     -6.70077442	     -1.92282855	     -9.72216885	      6.48993490	      2.76650613	    -13.79117355	    -10.36425432	     -6.28027179	     23.21568330	     46.29164392	      0.00000000	      0.00000000	     25.77619936	    -14.55240812	    -11.34578469	     79.09642197	     47.73950974	      0.00000000	      0.00000000
     25.13514286	     -5.36932351	     -4.44572165	     -2.53056051	      0.90537990	      0.92791592	      0.45888999	     29.98190031	     -0.50127207	    -13.08443598	     16.61515598	     16.61515598	      2.79932880	      1.64588069	      7.15087498	      1.82986214	     -3.43247032	    -10.41740894	     11.71827398	     11.71827398	     16.47811976	     -6.45440285	     -2.66609080	     -9.72127162	      6.42934534	      2.90927718	    -15.02408489	    -10.33033777	     -6.78882398	     24.97327685	     46.26369392	      0.00000000	      0.00000000	     26.24176768	    -14.46991297	    -11.21763534	     79.51304113	     47.77886071	      0.00000000	      0.00000000
     25.14742857	     -5.34947948	     -4.37096977	     -2.51905428	      0.90602957	      0.92642902	      0.46009154	     29.29709458	     -0.20072384	    -13.59684160	     14.45210262	     14.45210262	      2.83152255	      2.51164580	      7.96325880	      1.09299446	     -3.36106325	    -10.36916842	     11.45035060	     11.45035060	     16.89223418	     -6.42907373	     -2.78241492	     -9.60122343	      6.40452560	      2.86505745	    -15.38549943	    -10.29508095	     -6.81376410	     24.84752628	     46.27107949	      0.00000000	      0.00000000	     26.47252821	    -14.49602113	    -11.15434754	     79.62885288	     47.78353482	      0.00000000	      0.00000000
     25.15971429	     -5.36260987	     -4.31739237	     -2.50535077	      0.90685136	      0.92490361	      0.46143191	     28.75605263	      0.04464608	    -14.17889929	     13.10869069	     13.10869069	      2.95369567	      3.15081229	      8.49668115	      0.39865684	     -3.33123384	    -10.33381058	     11.21969795	     11.21969795	     17.27842496	     -6.39214106	     -2.85906902	     -9.41157529	      6.34305510	      2.84404573	    -15.55499769	    -10.25650828	     -6.84626984	     24.80515210	     46.27634367	      0.00000000	      0.00000000	     26.58690802	    -14.48124431	    -11.06798346	     79.69569013	     47.78436929	      0.00000000	      0.00000000
